nColumns=19
nRows=52
DataType=double
version=3
OpenSimVersion=4.1
endheader
time	ground_force_calcn_r_vx	ground_force_calcn_r_vy	ground_force_calcn_r_vz	ground_force_calcn_r_px	ground_force_calcn_r_py	ground_force_calcn_r_pz	ground_force_calcn_r_mx	ground_force_calcn_r_my	ground_force_calcn_r_mz	ground_force_calcn_l_vx	ground_force_calcn_l_vy	ground_force_calcn_l_vz	ground_force_calcn_l_px	ground_force_calcn_l_py	ground_force_calcn_l_pz	ground_force_calcn_l_mx	ground_force_calcn_l_my	ground_force_calcn_l_mz
1.51	-75.7833	109.149	-15.0798	-0.160212	0	-0.392596	-0.249991	0.360056	-0.0497447	-33.9401	51.6613	6.41062	-0.132301	0	-0.732419	0.164452	-0.250317	-0.0310617
1.52	-351.04	554.616	-66.493	-0.166729	0	-0.394587	-0.958273	1.514	-0.181513	-237.265	379.799	35.6705	-0.153009	0	-0.747967	0.17521	-0.280466	-0.0263412
1.53	-368.567	703.449	-87.1375	-0.173447	0	-0.396127	-1.40814	2.68757	-0.332915	-328.856	546.229	63.8012	-0.155257	0	-0.748113	0.154356	-0.256384	-0.0299465
1.54	-167.342	528.441	-72.9888	-0.188068	0	-0.39653	-1.04463	3.29879	-0.455632	-210.882	460.812	47.0308	-0.170716	0	-0.74092	0.0728482	-0.159185	-0.0162465
1.55	-129.822	622.267	-66.9683	-0.231201	0	-0.405101	-0.240306	1.15184	-0.123961	-145.157	671.966	23.3293	-0.236581	0	-0.725804	-0.443641	2.05371	0.0713009
1.56	-30.7671	985.933	-40.3451	-0.284079	0	-0.418989	0.0479927	-1.53793	0.0629332	16.881	1110.99	-0.193293	-0.282431	0	-0.716465	0.0619613	4.07788	-0.000709479
1.57	-17.4244	1120.72	-41.0771	-0.295348	0	-0.422897	0.0540631	-3.47728	0.127451	-4.86191	1016.45	31.4836	-0.281472	0	-0.717654	-0.0282309	5.90204	0.182811
1.58	-165.392	906.801	-59.6892	-0.271818	0	-0.418955	0.549421	-3.01233	0.198284	-191.758	689.049	61.8165	-0.246218	0	-0.725051	-1.36654	4.9104	0.440526
1.59	-213.995	701.969	-65.3358	-0.243238	0	-0.413245	0.70749	-2.32078	0.216007	-262.926	530.318	71.036	-0.212342	0	-0.731889	-1.9957	4.02529	0.539188
1.6	-163.726	609.183	-63.0732	-0.231552	0	-0.410107	0.610979	-2.2733	0.235372	-215.777	475.987	58.3713	-0.20496	0	-0.732547	-2.27345	5.01506	0.615007
1.61	-139.575	580.914	-56.2132	-0.226816	0	-0.409587	0.632247	-2.63142	0.254635	-165.904	451.463	49.5044	-0.20454	0	-0.731694	-2.24022	6.09615	0.668463
1.62	-153.261	560.618	-52.1898	-0.219929	0	-0.409286	0.753676	-2.7569	0.256649	-158.872	451.761	52.826	-0.203096	0	-0.73144	-2.18827	6.22247	0.727615
1.63	-158.276	542.28	-50.8591	-0.214466	0	-0.409096	0.770211	-2.63887	0.247493	-163.859	473.75	53.3587	-0.203193	0	-0.730491	-2.1921	6.3378	0.71383
1.64	-134.753	539.422	-48.1795	-0.215356	0	-0.409927	0.725482	-2.90413	0.259388	-146.605	498.916	50.3055	-0.207271	0	-0.728491	-1.98264	6.74718	0.680315
1.65	-101.553	565.089	-41.9946	-0.222908	0	-0.412479	0.653244	-3.63495	0.270132	-112.217	520.973	47.0392	-0.214266	0	-0.726021	-1.51818	7.04821	0.63639
1.66	-71.077	601.683	-36.9538	-0.231556	0	-0.414888	0.483564	-4.09348	0.251411	-82.4154	520.029	44.5562	-0.218513	0	-0.724539	-1.10612	6.97946	0.598002
1.67	-43.7508	626.71	-36.469	-0.237034	0	-0.415876	0.268479	-3.84584	0.223794	-76.422	482.122	44.8721	-0.214717	0	-0.725163	-1.01898	6.42845	0.598309
1.68	-27.7364	622.44	-41.6386	-0.23703	0	-0.415228	0.140527	-3.1536	0.210962	-85.817	437.662	43.0121	-0.206788	0	-0.726802	-1.23978	6.32283	0.621388
1.69	-27.3748	592.056	-46.18	-0.232523	0	-0.413739	0.126172	-2.72882	0.212847	-95.7375	411.738	39.7924	-0.200996	0	-0.727793	-1.57155	6.75875	0.653199
1.7	-34.7032	548.238	-45.6525	-0.225968	0	-0.412269	0.182783	-2.88759	0.240454	-97.5813	402.961	36.4527	-0.199137	0	-0.727465	-1.77494	7.32959	0.66305
1.71	-41.8641	498.722	-40.7251	-0.218671	0	-0.411106	0.282777	-3.36868	0.275083	-91.3565	404.196	31.7038	-0.200254	0	-0.726152	-1.81112	8.01306	0.628518
1.72	-46.1597	458.373	-35.6259	-0.212434	0	-0.409975	0.391395	-3.88661	0.302077	-80.884	417.677	26.0249	-0.204469	0	-0.72393	-1.7169	8.86592	0.552424
1.73	-49.0616	438.068	-34.4547	-0.208848	0	-0.409086	0.475912	-4.24938	0.33422	-66.2094	448.922	20.6484	-0.211981	0	-0.720669	-1.43259	9.71343	0.446774
1.74	-49.8937	434.16	-34.9457	-0.208111	0	-0.408922	0.551369	-4.79785	0.38618	-49.3723	487.46	22.1292	-0.219704	0	-0.718311	-0.974386	9.62025	0.43673
1.75	-47.1564	439.293	-33.2929	-0.209642	0	-0.409563	0.619895	-5.77474	0.437652	-35.7895	520.524	32.5684	-0.224771	0	-0.718731	-0.589104	8.56795	0.536084
1.76	-42.2214	450.903	-29.7711	-0.21278	0	-0.411001	0.653482	-6.97885	0.460782	-26.7112	543.655	43.3774	-0.227297	0	-0.720909	-0.365332	7.43564	0.593278
1.77	-37.4095	468.161	-26.4025	-0.216885	0	-0.412937	0.641432	-8.0272	0.452704	-24.0133	551.621	50.207	-0.227205	0	-0.723566	-0.289335	6.64646	0.604942
1.78	-31.9149	486.734	-24.906	-0.221222	0	-0.414742	0.562559	-8.5796	0.439015	-28.2145	547.334	52.139	-0.22505	0	-0.726062	-0.326028	6.32463	0.602483
1.79	-26.338	499.751	-25.8475	-0.224968	0	-0.415923	0.454467	-8.62328	0.446002	-35.7402	540.215	50.6966	-0.222489	0	-0.727832	-0.425835	6.43652	0.604037
1.8	-22.8671	507.729	-26.0828	-0.227374	0	-0.416588	0.383541	-8.51596	0.437478	-39.2353	539.554	48.9244	-0.221201	0	-0.728734	-0.484661	6.66494	0.604347
1.81	-21.7116	515.783	-25.067	-0.228424	0	-0.41706	0.347655	-8.25893	0.401383	-36.4783	545.548	49.2654	-0.221357	0	-0.729067	-0.449746	6.72614	0.607401
1.82	-20.4083	524.924	-25.24	-0.228796	0	-0.417291	0.297402	-7.6495	0.367812	-31.2545	553.349	51.6202	-0.221952	0	-0.729089	-0.375904	6.65523	0.620846
1.83	-16.5669	537.793	-26.9652	-0.228945	0	-0.417122	0.206622	-6.70736	0.336309	-26.7784	559.429	53.432	-0.222232	0	-0.728871	-0.321033	6.70673	0.640571
1.84	-11.8631	552.129	-30.9677	-0.228783	0	-0.416413	0.117811	-5.48313	0.307537	-24.3871	560.857	53.2902	-0.222144	0	-0.728264	-0.306416	7.04698	0.669573
1.85	-9.03085	560.934	-35.4592	-0.228271	0	-0.415422	0.0673444	-4.18296	0.264424	-23.7382	555.713	51.3813	-0.221801	0	-0.727352	-0.32966	7.71737	0.713549
1.86	-8.40724	562.111	-38.02	-0.227802	0	-0.414559	0.0458029	-3.0624	0.207134	-22.807	546.321	48.7327	-0.221663	0	-0.726371	-0.359515	8.61185	0.768191
1.87	-7.80587	559.145	-39.6301	-0.227937	0	-0.413595	0.0301641	-2.1607	0.153142	-20.9122	535.957	47.048	-0.221927	0	-0.725412	-0.368461	9.44328	0.828962
1.88	-5.86652	555.908	-41.9066	-0.228821	0	-0.412661	0.0143701	-1.3617	0.102651	-18.3354	527.475	46.7125	-0.222363	0	-0.724664	-0.349022	10.0407	0.889193
1.89	-2.6524	552.573	-44.5555	-0.23044	0	-0.411837	0.00328804	-0.684995	0.055233	-15.6199	522.283	47.0995	-0.223219	0	-0.72381	-0.312008	10.4326	0.940816
1.9	1.30878	549.482	-46.7031	-0.23261	0	-0.410901	-0.000385268	-0.161753	0.0137481	-12.7722	519.687	47.6992	-0.22465	0	-0.722888	-0.262753	10.6911	0.981278
1.91	5.75523	546.689	-47.9993	-0.235079	0	-0.410009	0.00175289	0.166507	-0.0146193	-10.0756	517.562	48.3998	-0.226136	0	-0.722109	-0.210105	10.7927	1.00927
1.92	10.2767	543.801	-49.063	-0.237613	0	-0.409155	0.00660206	0.349352	-0.0315194	-8.18786	514.565	49.3659	-0.227339	0	-0.721413	-0.171346	10.7682	1.03307
1.93	14.5216	540.873	-50.3468	-0.239813	0	-0.408326	0.0133558	0.497449	-0.0463047	-7.26443	510.472	51.055	-0.228027	0	-0.720865	-0.149614	10.5134	1.0515
1.94	18.1178	538.974	-51.9286	-0.241086	0	-0.407349	0.021143	0.628969	-0.0605993	-7.42067	505.435	52.6039	-0.228147	0	-0.720203	-0.14812	10.0887	1.05
1.95	19.1831	536.95	-53.855	-0.240659	0	-0.406173	0.0250903	0.702298	-0.0704391	-8.88889	500.623	52.684	-0.227812	0	-0.719397	-0.171681	9.66908	1.01754
1.96	16.2198	530.872	-54.7143	-0.238457	0	-0.405001	0.0189499	0.620228	-0.0639237	-11.527	496.075	51.885	-0.226983	0	-0.718685	-0.214874	9.24726	0.96718
1.97	9.96701	519.753	-54.5866	-0.234988	0	-0.403756	0.00865563	0.451368	-0.0474045	-14.4573	491.826	51.0397	-0.225937	0	-0.718009	-0.258261	8.78586	0.911761
1.98	2.99807	506.76	-54.7222	-0.231211	0	-0.402534	0.00160391	0.271108	-0.0292755	-16.4672	488.957	50.7371	-0.224971	0	-0.717389	-0.279628	8.30294	0.861562
1.99	-2.26903	496.445	-55.785	-0.227826	0	-0.401567	-0.000437332	0.0956848	-0.010752	-17.5178	489.131	51.4726	-0.223642	0	-0.71712	-0.280159	7.82256	0.823189
2	-5.40494	491.344	-57.0348	-0.22487	0	-0.400934	0.00123056	-0.111866	0.0129853	-19.9125	491.606	53.67	-0.221155	0	-0.7176	-0.295424	7.29352	0.796254
2.01	-7.52005	490.56	-57.9129	-0.222023	0	-0.400578	0.00561025	-0.365977	0.0432053	-24.1107	494.3	56.872	-0.217513	0	-0.718646	-0.325348	6.67004	0.767427
2.02	-9.89056	490.475	-58.3764	-0.218901	0	-0.400284	0.0129154	-0.640478	0.0762297	-29.8403	496.718	60.3863	-0.213071	0	-0.720198	-0.366868	6.10683	0.742412
